# File created by Blade
# Date/Time:  Tue Jan 27 17:01:38 2015
# Frame Rate: 120.000 fps
#------------------------------------------------------
:FULLY-SPECIFIED
:DEGREES
3140
root -1.187363 36.894621 5.666844 9.319780 12.178909 0.642866
Spine -10.321197 16.127928 -6.764543
Head 5.592643 2.963607 4.320789
LeftShoulder -12.319062 -7.594340 1.045590
LeftArm -3.056390 2.403291 -57.710306
LeftForeArm -70.527195 -0.000000 111.682800
LeftHand -6.972836 -0.000000 -3.118942
LeftHandThumb1 -26.253704 0.000000 33.147579
RightShoulder -3.627132 -24.762257 -2.926734
RightArm 21.549395 -32.606112 59.294835
RightForeArm -149.169201 -0.000000 33.380631
RightHand -1.561484 -0.000000 -2.906436
RightHandThumb1 -24.326973 -0.000000 -32.862282
LeftUpLeg -8.056430 6.708603 4.580824
LeftLeg 7.195753 -0.000000 -0.000000
LeftFoot -13.309075 -1.286021 -20.896608
LeftToeBase 15.027832 -0.000000 -0.000000
RightUpLeg -6.676641 -15.274304 -0.210893
RightLeg 10.501624 -0.000000 -0.000000
RightFoot -19.040141 -9.487327 15.766770
RightToeBase 10.889572 -0.000000 -0.000000
3141
root -1.193217 36.893992 5.674945 9.350102 12.276983 0.654221
Spine -10.376741 16.140842 -6.811954
Head 5.577097 2.990196 4.337505
LeftShoulder -12.284752 -7.665969 0.967176
LeftArm -3.413857 0.053290 -57.795004
LeftForeArm -70.159744 0.000000 112.050566
LeftHand -6.401709 -0.000000 -2.515572
LeftHandThumb1 -26.253704 0.000000 33.147579
RightShoulder -3.624593 -24.769823 -2.928135
RightArm 21.528226 -32.631507 59.265349
RightForeArm -149.196421 0.000000 33.363859
RightHand -1.570924 -0.000000 -2.814348
RightHandThumb1 -24.326973 -0.000000 -32.862282
LeftUpLeg -8.092129 6.671516 4.588722
LeftLeg 7.197761 -0.000000 -0.000000
LeftFoot -13.282374 -1.333636 -20.888505
LeftToeBase 15.016631 -0.000000 -0.000000
RightUpLeg -6.683959 -15.298300 -0.196024
RightLeg 10.505689 -0.000000 -0.000000
RightFoot -19.086308 -9.537168 15.798689
RightToeBase 10.932132 -0.000000 -0.000000
3142
root -1.198060 36.892073 5.685029 9.359620 12.360385 0.653842
Spine -10.413333 16.166038 -6.832852
Head 5.570624 3.025067 4.324036
LeftShoulder -12.238846 -7.758059 0.893827
LeftArm -3.825816 -2.404684 -57.864722
LeftForeArm -70.169474 -0.000000 112.405171
LeftHand -6.008997 0.000000 -1.985969
LeftHandThumb1 -26.253704 0.000000 33.147579
RightShoulder -3.611125 -24.779021 -2.941812
RightArm 21.491526 -32.637120 59.242628
RightForeArm -149.181481 0.000000 33.387704
RightHand -1.530402 0.000000 -2.797707
RightHandThumb1 -24.326973 -0.000000 -32.862282
LeftUpLeg -8.098093 6.660166 4.605545
LeftLeg 7.186539 -0.000000 -0.000000
LeftFoot -13.272230 -1.380150 -20.866800
LeftToeBase 15.032245 -0.000000 -0.000000
RightUpLeg -6.687959 -15.332472 -0.174576
RightLeg 10.545864 -0.000000 -0.000000
RightFoot -19.136202 -9.579050 15.810677
RightToeBase 10.924603 -0.000000 -0.000000
3143
root -1.201663 36.891145 5.694770 9.377248 12.467185 0.673159
Spine -10.452122 16.167605 -6.876209
Head 5.559124 3.042975 4.319789
LeftShoulder -12.199775 -7.818460 0.802001
LeftArm -4.188655 -4.844683 -57.895018
LeftForeArm -69.880275 0.000000 112.744234
LeftHand -5.272765 -0.000000 -1.498521
LeftHandThumb1 -26.253704 0.000000 33.147579
RightShoulder -3.587355 -24.785902 -2.960543
RightArm 21.452818 -32.633850 59.250473
RightForeArm -149.125337 -0.000000 33.378783
RightHand -1.557155 -0.000000 -2.878886
RightHandThumb1 -24.326973 -0.000000 -32.862282
LeftUpLeg -8.110524 6.611499 4.605093
LeftLeg 7.172499 -0.000000 -0.000000
LeftFoot -13.240449 -1.434929 -20.882070
LeftToeBase 15.018717 -0.000000 -0.000000
RightUpLeg -6.686462 -15.377996 -0.171655
RightLeg 10.571056 -0.000000 -0.000000
RightFoot -19.181866 -9.626001 15.835782
RightToeBase 10.927795 -0.000000 -0.000000
3144
root -1.205533 36.890037 5.707041 9.376746 12.574760 0.685465
Spine -10.469873 16.172212 -6.908500
Head 5.540834 3.065158 4.301227
LeftShoulder -12.170870 -7.892699 0.718909
LeftArm -4.583636 -7.335909 -57.928120
LeftForeArm -69.725597 -0.000000 113.097519
LeftHand -5.099469 -0.000000 -1.165666
LeftHandThumb1 -26.253704 0.000000 33.147579
RightShoulder -3.587574 -24.783274 -2.973511
RightArm 21.446266 -32.654770 59.224446
RightForeArm -149.113548 -0.000000 33.369612
RightHand -1.551717 -0.000000 -2.931794
RightHandThumb1 -24.326973 -0.000000 -32.862282
LeftUpLeg -8.106073 6.569968 4.616154
LeftLeg 7.165897 -0.000000 -0.000000
LeftFoot -13.218562 -1.494158 -20.880472
LeftToeBase 15.030060 -0.000000 -0.000000
RightUpLeg -6.642651 -15.416080 -0.170399
RightLeg 10.554255 -0.000000 -0.000000
RightFoot -19.217130 -9.664649 15.865337
RightToeBase 10.910514 -0.000000 -0.000000
3145
root -1.213922 36.888995 5.719032 9.373418 12.697764 0.687519
Spine -10.483377 16.162742 -6.939721
Head 5.526809 3.060985 4.290933
LeftShoulder -12.128184 -7.954043 0.617977
LeftArm -4.980681 -9.854420 -57.886176
LeftForeArm -69.525615 -0.000000 113.477230
LeftHand -4.690332 0.000000 -0.702806
LeftHandThumb1 -26.253704 0.000000 33.147579
RightShoulder -3.581218 -24.788711 -2.970990
RightArm 21.448864 -32.660053 59.187965
RightForeArm -149.083005 -0.000000 33.375078
RightHand -1.539466 0.000000 -2.869077
RightHandThumb1 -24.326973 -0.000000 -32.862282
LeftUpLeg -8.109891 6.534298 4.644330
LeftLeg 7.164856 -0.000000 -0.000000
LeftFoot -13.191077 -1.569147 -20.887689
LeftToeBase 15.050495 -0.000000 -0.000000
RightUpLeg -6.589403 -15.419604 -0.152911
RightLeg 10.521222 -0.000000 -0.000000
RightFoot -19.266766 -9.724215 15.950993
RightToeBase 10.938791 -0.000000 -0.000000
3146
root -1.219007 36.887833 5.730223 9.379431 12.806376 0.703763
Spine -10.504424 16.139432 -6.973167
Head 5.515942 3.090971 4.258727
LeftShoulder -12.112133 -8.022134 0.529057
LeftArm -5.410145 -12.399374 -57.826789
LeftForeArm -69.058503 0.000000 113.808147
LeftHand -4.114753 0.000000 -0.247474
LeftHandThumb1 -26.253704 0.000000 33.147579
RightShoulder -3.563014 -24.836515 -2.983188
RightArm 21.509657 -32.660694 59.115558
RightForeArm -149.004374 -0.000000 33.377611
RightHand -1.588393 -0.000000 -2.853161
RightHandThumb1 -24.326973 -0.000000 -32.862282
LeftUpLeg -8.114567 6.484672 4.651581
LeftLeg 7.162295 -0.000000 -0.000000
LeftFoot -13.154840 -1.619331 -20.880713
LeftToeBase 14.988647 -0.000000 -0.000000
RightUpLeg -6.560872 -15.446107 -0.149061
RightLeg 10.517830 -0.000000 -0.000000
RightFoot -19.304777 -9.786874 15.966453
RightToeBase 10.913882 -0.000000 -0.000000
3147
root -1.224540 36.886205 5.740668 9.376372 12.920488 0.715212
Spine -10.504238 16.123137 -7.004165
Head 5.478762 3.119467 4.231395
LeftShoulder -12.077415 -8.059483 0.415089
LeftArm -5.838454 -14.918889 -57.712462
LeftForeArm -68.730600 -0.000000 114.209627
LeftHand -3.306552 -0.000000 0.661825
LeftHandThumb1 -26.253704 0.000000 33.147579
RightShoulder -3.525139 -24.852400 -3.002123
RightArm 21.504312 -32.629713 59.080655
RightForeArm -148.964614 0.000000 33.421052
RightHand -1.523948 0.000000 -2.982761
RightHandThumb1 -24.326973 -0.000000 -32.862282
LeftUpLeg -8.119012 6.452356 4.663886
LeftLeg 7.169058 -0.000000 -0.000000
LeftFoot -13.139079 -1.691022 -20.879981
LeftToeBase 15.013692 -0.000000 -0.000000
RightUpLeg -6.527848 -15.478899 -0.142103
RightLeg 10.521928 -0.000000 -0.000000
RightFoot -19.357189 -9.826460 16.007850
RightToeBase 10.922616 -0.000000 -0.000000
3148
root -1.229738 36.884949 5.752671 9.369367 13.034809 0.735684
Spine -10.500367 16.091016 -7.042150
Head 5.449172 3.154936 4.209946
LeftShoulder -12.048559 -8.111847 0.286427
LeftArm -6.285300 -17.464854 -57.500204
LeftForeArm -68.497921 -0.000000 114.579378
LeftHand -2.499346 -0.000000 1.538005
LeftHandThumb1 -26.253704 0.000000 33.147579
RightShoulder -3.478854 -24.849766 -3.021493
RightArm 21.506298 -32.622657 59.049826
RightForeArm -148.911118 -0.000000 33.440804
RightHand -1.571560 -0.000000 -2.917259
RightHandThumb1 -24.326973 -0.000000 -32.862282
LeftUpLeg -8.109839 6.409094 4.668676
LeftLeg 7.162912 -0.000000 -0.000000
LeftFoot -13.107489 -1.743329 -20.859531
LeftToeBase 15.001022 -0.000000 -0.000000
RightUpLeg -6.488716 -15.529086 -0.145289
RightLeg 10.534361 -0.000000 -0.000000
RightFoot -19.399770 -9.882898 16.003927
RightToeBase 10.901334 -0.000000 -0.000000
3149
root -1.233937 36.882733 5.765130 9.355973 13.148952 0.764266
Spine -10.485684 16.062227 -7.090988
Head 5.405658 3.183239 4.203974
LeftShoulder -12.021748 -8.171736 0.139637
LeftArm -6.598227 -20.259435 -57.347914
LeftForeArm -68.377785 -0.000000 114.931398
LeftHand -2.329114 0.000000 2.773672
LeftHandThumb1 -26.253704 0.000000 33.147579
RightShoulder -3.430463 -24.851342 -3.054945
RightArm 21.510181 -32.598719 59.045209
RightForeArm -148.886588 0.000000 33.466867
RightHand -1.532721 -0.000000 -2.931292
RightHandThumb1 -24.326973 -0.000000 -32.862282
LeftUpLeg -8.090618 6.348454 4.667776
LeftLeg 7.156621 -0.000000 -0.000000
LeftFoot -13.088091 -1.803873 -20.890878
LeftToeBase 15.016813 -0.000000 -0.000000
RightUpLeg -6.461000 -15.622895 -0.155449
RightLeg 10.584379 -0.000000 -0.000000
RightFoot -19.471647 -9.900080 16.009084
RightToeBase 10.928746 -0.000000 -0.000000
